<?xml version="1.0" encoding="utf-8"?>
<!-- Generator: Adobe Illustrator 23.0.1, SVG Export Plug-In . SVG Version: 6.00 Build 0)  -->
<!DOCTYPE svg [
	<!ENTITY ns_extend "http://ns.adobe.com/Extensibility/1.0/">
	<!ENTITY ns_ai "http://ns.adobe.com/AdobeIllustrator/10.0/">
	<!ENTITY ns_graphs "http://ns.adobe.com/Graphs/1.0/">
	<!ENTITY ns_vars "http://ns.adobe.com/Variables/1.0/">
	<!ENTITY ns_imrep "http://ns.adobe.com/ImageReplacement/1.0/">
	<!ENTITY ns_sfw "http://ns.adobe.com/SaveForWeb/1.0/">
	<!ENTITY ns_custom "http://ns.adobe.com/GenericCustomNamespace/1.0/">
	<!ENTITY ns_adobe_xpath "http://ns.adobe.com/XPath/1.0/">
]>
<svg version="1.2" baseProfile="tiny" id="图层_1" xmlns:x="&ns_extend;" xmlns:i="&ns_ai;" xmlns:graph="&ns_graphs;"
	 xmlns="http://www.w3.org/2000/svg" xmlns:xlink="http://www.w3.org/1999/xlink" x="0px" y="0px" viewBox="0 0 1024 1024"
	 xml:space="preserve">
<metadata><?xpacket begin="﻿" id="W5M0MpCehiHzreSzNTczkc9d"?>
<x:xmpmeta xmlns:x="adobe:ns:meta/" x:xmptk="Adobe XMP Core 5.6-c145 79.163499, 2018/08/13-16:40:22        ">
   <rdf:RDF xmlns:rdf="http://www.w3.org/1999/02/22-rdf-syntax-ns#">
      <rdf:Description rdf:about=""
            xmlns:xmpMM="http://ns.adobe.com/xap/1.0/mm/"
            xmlns:stMfs="http://ns.adobe.com/xap/1.0/sType/ManifestItem#"
            xmlns:stRef="http://ns.adobe.com/xap/1.0/sType/ResourceRef#"
            xmlns:stEvt="http://ns.adobe.com/xap/1.0/sType/ResourceEvent#"
            xmlns:dc="http://purl.org/dc/elements/1.1/"
            xmlns:xmp="http://ns.adobe.com/xap/1.0/"
            xmlns:xmpGImg="http://ns.adobe.com/xap/1.0/g/img/"
            xmlns:xmpTPg="http://ns.adobe.com/xap/1.0/t/pg/"
            xmlns:stDim="http://ns.adobe.com/xap/1.0/sType/Dimensions#"
            xmlns:xmpG="http://ns.adobe.com/xap/1.0/g/">
         <xmpMM:Manifest>
            <rdf:Seq>
               <rdf:li rdf:parseType="Resource">
                  <stMfs:linkForm>EmbedByReference</stMfs:linkForm>
                  <stMfs:reference rdf:parseType="Resource">
                     <stRef:filePath>C:\Users\love-\GitHub\wxClient\resources\logo\mouldbbs300.png.png</stRef:filePath>
                     <stRef:documentID>0</stRef:documentID>
                     <stRef:instanceID>0</stRef:instanceID>
                  </stMfs:reference>
               </rdf:li>
            </rdf:Seq>
         </xmpMM:Manifest>
         <xmpMM:Ingredients>
            <rdf:Bag>
               <rdf:li rdf:parseType="Resource">
                  <stRef:filePath>C:\Users\love-\GitHub\wxClient\resources\logo\mouldbbs300.png.png</stRef:filePath>
                  <stRef:documentID>0</stRef:documentID>
                  <stRef:instanceID>0</stRef:instanceID>
               </rdf:li>
            </rdf:Bag>
         </xmpMM:Ingredients>
         <xmpMM:DerivedFrom rdf:parseType="Resource"/>
         <xmpMM:DocumentID>xmp.did:d374e64c-ecc1-9f40-b24e-64ca46bb8352</xmpMM:DocumentID>
         <xmpMM:InstanceID>xmp.iid:d374e64c-ecc1-9f40-b24e-64ca46bb8352</xmpMM:InstanceID>
         <xmpMM:OriginalDocumentID>xmp.did:d374e64c-ecc1-9f40-b24e-64ca46bb8352</xmpMM:OriginalDocumentID>
         <xmpMM:History>
            <rdf:Seq>
               <rdf:li rdf:parseType="Resource">
                  <stEvt:action>saved</stEvt:action>
                  <stEvt:instanceID>xmp.iid:d374e64c-ecc1-9f40-b24e-64ca46bb8352</stEvt:instanceID>
                  <stEvt:when>2018-11-19T20:22:20+08:00</stEvt:when>
                  <stEvt:softwareAgent>Adobe Illustrator CC 23.0 (Windows)</stEvt:softwareAgent>
                  <stEvt:changed>/</stEvt:changed>
               </rdf:li>
            </rdf:Seq>
         </xmpMM:History>
         <dc:format>image/svg+xml</dc:format>
         <xmp:CreatorTool>Adobe Illustrator CC 23.0 (Windows)</xmp:CreatorTool>
         <xmp:CreateDate>2018-11-19T20:22:20+08:00</xmp:CreateDate>
         <xmp:Thumbnails>
            <rdf:Alt>
               <rdf:li rdf:parseType="Resource">
                  <xmpGImg:width>256</xmpGImg:width>
                  <xmpGImg:height>256</xmpGImg:height>
                  <xmpGImg:format>JPEG</xmpGImg:format>
                  <xmpGImg:image>/9j/4AAQSkZJRgABAgEASABIAAD/7QAsUGhvdG9zaG9wIDMuMAA4QklNA+0AAAAAABAASAAAAAEA&#xA;AQBIAAAAAQAB/+4ADkFkb2JlAGTAAAAAAf/bAIQABgQEBAUEBgUFBgkGBQYJCwgGBggLDAoKCwoK&#xA;DBAMDAwMDAwQDA4PEA8ODBMTFBQTExwbGxscHx8fHx8fHx8fHwEHBwcNDA0YEBAYGhURFRofHx8f&#xA;Hx8fHx8fHx8fHx8fHx8fHx8fHx8fHx8fHx8fHx8fHx8fHx8fHx8fHx8fHx8f/8AAEQgBAAEAAwER&#xA;AAIRAQMRAf/EAaIAAAAHAQEBAQEAAAAAAAAAAAQFAwIGAQAHCAkKCwEAAgIDAQEBAQEAAAAAAAAA&#xA;AQACAwQFBgcICQoLEAACAQMDAgQCBgcDBAIGAnMBAgMRBAAFIRIxQVEGE2EicYEUMpGhBxWxQiPB&#xA;UtHhMxZi8CRygvElQzRTkqKyY3PCNUQnk6OzNhdUZHTD0uIIJoMJChgZhJRFRqS0VtNVKBry4/PE&#xA;1OT0ZXWFlaW1xdXl9WZ2hpamtsbW5vY3R1dnd4eXp7fH1+f3OEhYaHiImKi4yNjo+Ck5SVlpeYmZ&#xA;qbnJ2en5KjpKWmp6ipqqusra6voRAAICAQIDBQUEBQYECAMDbQEAAhEDBCESMUEFURNhIgZxgZEy&#xA;obHwFMHR4SNCFVJicvEzJDRDghaSUyWiY7LCB3PSNeJEgxdUkwgJChgZJjZFGidkdFU38qOzwygp&#xA;0+PzhJSktMTU5PRldYWVpbXF1eX1RlZmdoaWprbG1ub2R1dnd4eXp7fH1+f3OEhYaHiImKi4yNjo&#xA;+DlJWWl5iZmpucnZ6fkqOkpaanqKmqq6ytrq+v/aAAwDAQACEQMRAD8AKcy3yV2KuxV2KuxV2Kux&#xA;V2KuxV2KuxV2KuxV2KuxV2KuxV2KuxV2KuxV2KuxV2KuxV2KuxV2KuxV2KuxV2KuxV2KuxV2KuxV&#xA;2KuxV2KuxV2KuxV2KuxV2KuxV2KuxV2KuxV2KuxV2KuxV2KuxV2KuxV2KuxV2KuxV2KuxV2KuxV2&#xA;KuxV2KuxV2KuxV2KuxV2KuxV2KuxV2KuxV2KuxV2KuxV2KuxV2KuxV2KuxV2KuxV2KuxV2KuxV2K&#xA;uxV2KuxV2KuxV2KuxV2KuxV2KuxV2KuxV2KuxV2KuxV2KuxV2KuxV2KuxV2KuxV2KuxV2KuxV2Ku&#xA;xV2KuxV2KuxV2KuxV2KuxV2KuxV2KuxV2KuxV2KuxV2KuxV2KuxV2KuxV2KuxV2KuxV2KuxV2Kux&#xA;V2KuxV2KuxV2KuxV2KuxV2KuxV2Ksx8u/lT5s1qFLkRJY2jiqS3RKlh4qgDP8qgA5AzAdxpOxM+Y&#xA;cVcMfP8AUyVfyDveI5axEG7gQsR9/MZHxXYj2Yl/PHy/a3/yoO7/AOrzH/yIb/mvHxU/6GJfzx8v&#xA;2u/5UHd/9XmP/kQ3/NePir/oYl/PHy/a7/lQd3/1eY/+RDf814+Kv+hiX88fL9qD1n8kr/TtJu79&#xA;NTS4NpE8xhEJUsIxyIB5neg8MIyNOo9nZY8cpid8Iuq/a80yx5tlnkn8u9S81QXNxBOlrBbMsfqS&#xA;KzB3IqQKfyilfnkJTp2vZ3ZM9UCQeEBlEf5Caia+pq8K+HGJm/Wy5HxXZj2Yn1mPk2/5B34X4NYi&#xA;ZvBoWUfeGbHxUn2Yn0mPl+1K9V/JPzXZwtNaSQX4UV9KNikh+SuAp/4LCMgcXP7O54C4kS+9gE0M&#xA;sMrwzI0csbFZI2BDKwNCCD0Iyx0MokGjzW4odirsVdirsVdirsVdirsVdirsVdirsVdirsVdirsV&#xA;dirsVekfk75LttWu5tZ1CMS2dk4S3hYVV56ciWHcICNvE5XklWz0fYHZ0csjkmLjHl7/ANj3LKHt&#xA;XYq7FXYq7FWI/mh5jg0bypdIWH1vUEe1to+55ijt/sFNfnTJwFl1XbOrGHAR/FPYfp+T5zzIfPH0&#xA;r+XGjrpXk3TYeNJZ4xczeJeb49/9VSF+jMaZsvo/ZOn8LTxHUiz8WS5F2LsVdirxn89NCtoLyx1i&#xA;FAkl2GhuqbcmjAKMffiSD8hl2I9Hj/aXTCMo5B/Fsfg8ry15d2KuxV2KuxV2KuxV2KuxV2KuxV2K&#xA;uxV2KuxV2KuxV2KuxV9D/lDBHH5CsHUUaZ53f5iZ0/UgzHyc30DsGIGlie+/vLM8g7h2KuxV2Kpd&#xA;r/mDS9C06S/1GYRQpsq7c5G7Ii/tMf8APbCBbj6rVQwQM5mh9/ufOPnDzXfeZtYe/ufgiHwWtuDV&#xA;Y4x0HuT1JzIjGg+ea/XS1OTjly6DuCUW0LT3MUC/aldUHzY0yTiQjxEDvfWkcaRxrGg4ogCqo7AC&#xA;gGYj6qAAKC7FLsVdirzP89/+Ud0//mM/5lPlmLm857Tf3Mf636C8Ry94p2KuxV2KuxV2KuxV2Kux&#xA;V2KuxV2KuxV2KuxV2KuxV2KuxV9F/lL/AOS+0r/o4/6iZMx5830LsP8AxSHx/wB0WX5B2zsVSXWf&#xA;OflfRqrqOowxSr1gU+pL/wAi05MPpGERJcPUdoYMP1yAPd1+QYHrv57WaI0eh2LyydBcXXwID4iN&#xA;CWb6WGWDF3ui1PtLEbYo2e8/q/seWa75i1jXbz63qly1xKKhAdkQHsijZR8stAAeY1OryZ5cUzZS&#xA;7C46I06VYdQtZm+zHNG7dtlYHAWzFKpg+YfWWYr6o7FXYq7FXmf57/8AKO6f/wAxn/Mp8sxc3nPa&#xA;b+5j/W/QXiOXvFOxV2KuxV2KuxV2KuxV2KuxV2KuxV2KuxV2KuxV2KuxV2Kvov8AKX/yX2lf9HH/&#xA;AFEyZjz5voXYf+KQ+P8AuinHmnzNp/lzSJNRvSSAeEMK/akkIJVF+7c9hkYi3M1ushp8ZnL4eZeD&#xA;eZfzL8067I6tctZ2TfZtLYlFp4Ow+J/eu3tl4gA8LrO2M+c8+GPcPxuxXJurdirsVdirsVfUnlPV&#xA;V1Xy1puoA8mngT1D/wAWKOMg+h1OYshRfTtDn8XDGfePt6/am2BynYq7FXkn58avamHTtIRg1yHa&#xA;5lUdUXiUSv8ArVP3ZbiDyvtNnjUcfXm8gy55F2KuxV2KuxV2KuxV2KuxV2KuxV2KuxV2KuxV2Kux&#xA;V2KuxV9F/lL/AOS+0r/o4/6iZMx5830LsP8AxSHx/wB0WI/n79YpovX6v/pFadOf7vr9HT6clidT&#xA;7T3+77vV+h5FlzybsVdirsVdirsVeh/lj+ZNv5ejk0vVQ502R/UhmQcjC5+0CvUoeu3Q9t8rnC3o&#xA;Oxu1xpwYZPo7+79j1i08/eS7pOUWs2qgiv72QQn7peByrhL1UO1NNLlOPxNfe3d+ffJlrGXl1q0Z&#xA;RvSKVZj/AMDFzOPCVn2npoizkj8Df3ME80/nhAI3t/LkBeQ1H164Wir7pH1P+yp8jk44+90et9ox&#xA;VYRv/OP6B+v5PJLy8ur26kuruVp7mZuUsrmrMT4k5c8pkySnIykbJUcWDsVdirsVdirsVdirsVdi&#xA;rsVdirsVdirsVdirsVdirsVdir6L/KX/AMl9pX/Rx/1EyZjz5voXYf8AikPj/uijPzA8sjzD5Zub&#xA;NBW7i/f2Z/4tjBoP9kCV+nBA0W7tTR/mMJiPqG49/wCNnzQylSVYUI2IPUHMl84dih2KuxV2KuxV&#xA;2KuxV2KuxV2KuxV2KuxV2KuxV2KuxV2KuxV2KuxV2KuxV2KuxV2KuxV2KuxV9F/lL/5L7Sv+jj/q&#xA;JkzHnzfQuw/8Uh8f90WX5B2z5o/MaGzh876vHaU9H1uRC9BIyq0g+iQtmTDk+cdrRiNTMR5X/b9r&#xA;HMk652KuxV2KuxV2KuxV2KuxV2KuxV2KuxV2KuxV2KuxV2KuxV2KuxV2KuxV2KuxV2KuxV2KuxV9&#xA;C/lfe2dp+XelyXU8dvGPrBLyuqL/AL0yd2IzHmN3v+xskYaOBkQPq5/1ik/nf84dOtLeSy8vSC6v&#xA;nHE3oFYYq91r9tvD9n59MMcfe4naPb8Igxwnil39B+v7nikssksjyysXkkJZ3Y1JYmpJJ7nL3jCS&#xA;TZ5rcUOxV2KuxV2KuxV2KuxVGaPpN9q+pQadYx+pc3DcUHYdyzHsqjcnATTdgwSyzEIi5F6R+ZXl&#xA;XT/LfkbSrG1UNKLvlc3JFGkkMTcmPgNth2GVwlZei7X0UNPpYRjz4tz3mnleWvLuxV2KuxV2KuxV&#xA;2KuxV2KuxV2KuxV2KuxV2KuxV2KuxV2KuxV2KuxV2Kp15b8neYPMUxTTLYvEhpJcv8EKfNz39hU5&#xA;EyAc3SaDLqDUBt39HounfkLHwDalqxLmnKO3jAA8aO53/wCBys5XoMXswP45/Ifj7le7/ITTWU/V&#xA;NWmibt6sayD/AIUx4+K2T9mIfwzI94v9TFNY/JrzhY8ntUi1GIb1gfi9PdJOO/spOSGQOq1Hs/qI&#xA;bxqY8v1Fht9pmpafL6V9ay2sn8kyMh/4YDJguoyYZ4zUgY+9DYWpVtbS6u7iO2tYnnuJTxjijBZm&#xA;J7ADFnCEpkRiLJfQH5aeQU8tWDXN4qtrF2o9dhuIk6iJT892I6n5Zjzlb3nY/Zn5aHFL+8lz8vL9&#xA;aSfny7DRdMT9lrlmI9xGQP15LFzcP2mP7uA/pfoeK5c8Y7FXYq7FXYq7FXYq7FXYq7FXYq7FXYq7&#xA;FXYq7FXYq7FXYq7FXYq7FWY/lx5Ck8z6g01zyj0i1YfWXGxkbqIlP/Ej2HzGQnKncdkdmHUzuX93&#xA;Hn5+T6CsbGzsLSKzs4VgtoV4xRIKKBmOS97jxxhERiKAV8WbsVdiqyaGGaMxzRrJG3VHAZT9BxRK&#xA;IIo7pHd+QfJl2S02j2wJ6mNBETX/AIx8clxFwp9maaXOEfu+5HaV5c0LSAf0bYQ2rNszxoA5HgX+&#xA;0fvwEkt2DSYsX0REUxwOQ8o/Pyalpo0NftyTvx8eCoK/8PluJ5b2nl6YDzP6HjmXPIOxV2KuxV2K&#xA;uxV2KuxV2KuxV2KuxV2KuxV2KuxV2KuxV2KuxV2Kr4IZZ5o4Il5SysEjUdSzGgH34soxMiAOZfUf&#xA;ljQbfQdDtNLgofQQerIBTnId3f6W/DMWRsvpuj0wwYhAdPv6ppgcl2KuxV2KuxV2KuxV2KvDvzy1&#xA;eG68wWmnRNyOnwkzUP2ZJiG4/Piqn6cvxjZ4r2kziWWMB/CPtP4DzbLHnHYq7FXYq7FXYq7FXYq7&#xA;FXYq7FXYq7FXYq7FXYq7FXYq7FXYq7FU/wDIDWCecdKlv5o7e1im9V5pWCIpjUulWOw+JRkZcnP7&#xA;LMRqIGZAiDe/k+hP8YeUf+r3p/8A0lQ/81Zj8Je+/P6f/VIf6Yfrd/jDyj/1e9P/AOkqH/mrHhK/&#xA;n9P/AKpD/TD9bv8AGHlH/q96f/0lQ/8ANWPCV/P6f/VIf6Yfrd/jDyj/ANXvT/8ApKh/5qx4Sv5/&#xA;T/6pD/TD9bv8Y+Uf+r3Yf9JUP/NWPCV/P6f/AFSH+mH61H/Hfk3/AKvVn/yOT+uHhLH+UtN/qkfm&#xA;7/Hfk3/q9Wf/ACOT+uPCV/lLTf6pH5tN588mKpJ1q0oPCVSfuGPCUHtPTf6pH5sP82fnVpVtBJb+&#xA;Xgby7YFRdupWGPtUBqM5Hyp8+mTjj73U672hhEVh9Uu/oP1vF7m5nuriS4uJDLPMxeWRjUszGpJy&#xA;542czIknclTxYuxV2KuxV2KuxV2KuxV2KuxV2KuxV2KuxV2KuxV2KuxV2KuxV2KuxV2KuxV2KuxV&#xA;2KuxVHaHot9reqQ6ZYhWup+XphzxX4ELmp+S4Cab9Np5ZpiEfqP9q/zB5f1LQdSbT9RQJcKqv8J5&#xA;KVYVBBxBtlqtLPBPgnzRXl7yZr/mC2u7jS4BMlnT1FLBWYsCQqA9T8OAyAbNL2flzxkYC+FJMk4T&#xA;JU/L7zC/lb/EqiI2HAy8OR9XgrlCePGnbl16ZHjF07Idl5jg8bbh5+bGsk612KuxV2KuxV2KuxV2&#xA;KuxV2KuxV2KuxV2KuxV2KuxV2KuxVn/5fflhD5n0ubUrm+a2iWUwxxxqGYlVVizEn/K6ZXKdO+7L&#xA;7GGpgZylQumU/wDKhdI/6ulx/wAAmR8V2n+hnH/PP2KX/Kg7P/q8yf8AIhf+a8fFYf6GI/zz8v2q&#xA;LfkCKnjrtB2Btamn/I4Y+Kx/0L/7Z/sf+PPLNVsH07VLvT5Dye0mkgZqUqY2K1pU9aZaC8vnxHHO&#xA;UD/CSPkhcLU7FU/8n+TNS803c1vYywwm3UPK0xYfCxp8PFWqcjKVOfoOz56mRESBXe9Z8kflOPLm&#xA;rR6rPqP1q4jR1WFI+CAuvEnkWJOx8BlUp29V2d2H+XyDIZWfcyDzL5C8u+Y7qK61OORp4U9JHjcp&#xA;8FS1DTwJOREiHP1nZmHUSEpg2NkZ5b8r6T5cspLPTEZIZZDK5di7FioXqe1FwGVt2k0WPTx4Ycib&#xA;SSf8pPI000kz2T85WLtxmlAqxqaANtkvELhS7C0pJJjz8yyWPSbCPSBpCRUsBB9VENSf3XDhxqd/&#xA;s5G3ZDBAY/Dr01Xw5MR/5Ux5I/31cf8AI4/0yXiF1P8Aoe03cfm8r/Mzy3pnl7zGthpyutubdJSH&#xA;bmeTMwO5/wBXLYGw8v2xpIafNwQ5cILE8m6p2KuxV2KuxV2KuxV2KuxV2KuxV2KuxV2KuxV2KuxV&#xA;MtL8y+YNKhMOnahPaQs/qNHE5VS5AHIgbVoowEAuTh1mXEKhIxHk9G/KjzB5x13zC63mpTTadaRm&#xA;W5RwpDM3wxrWlRueW3hlcwAHoew9VqM+b1SJhEb/AKPx5Mi/Nbz1qXlyOxttLdEvLou8juofjGlA&#xA;Njt8TH8MjCNuw7b7SnpxGOP6pfc8/H50ed/RaP1bcuRQTeiOQ9xvx/DJ+GHQ/wCiHU1Vx+TC7y8u&#xA;b27mu7qQy3M7mSaQ0qzMak7bZY6bJklORlLclRxYOxVO/KvnDVvLNzPcaaIi9wgjkEylhQGopQrk&#xA;ZRtzdFr8mmkTCt+96D5I/NnzBq3mey03UltltboshaNGVg3AlKEs3VgBlcoAB3/Z3bmXLnjCfDwy&#xA;8v2st/NXX9R0TyuLrT5zb3UlxHEkgCk0IZiKMCOi5GAsu17b1U8ODigalxALfyn1vVNZ8syXepXJ&#xA;urkXUkfNgoIVUQhaKF8a4zFFHYepnmwGUzxHiP6Hnnmz8zPO1h5m1OytNS9O2t7mSOGP0bduKqxA&#xA;FWjJP0nLIwFOg13bGphmnGMqiJHpH9T2HyvqE9/5a0y+uW5XE9rFJPIQBycoOTUAAFTvtlMhu9do&#xA;spnhhKXMxFvnm78/ec7on1dZulr1EUhiH3R8cyOEPn8+09TLnOXzr7klubu6upTNdTSTykUMkrF2&#xA;oPdiTknDnOUjciSfNSxYOxV2KuxV2KuxV2KuxV2KuxV2KuxV2KqlrbyXNzDbRf3kzrGlenJzQdPn&#xA;iyhAykAOZTrzd5M1byveRW9/wkSdecFxFUo1PtD4gDVa7jIxlbm6/s/JppAT68iEy8wflrqmkeWL&#xA;PX/VE0E0cT3cPEq8BmpxrueQqwU++ATs05Gq7IniwRy3YIF+Vpj51/L200nyhpGtWgKTtFCmpxkl&#xA;gZJU5cxX7NG+GnywRnZpyO0eyo4tPDJHnQ4veev6GP8AlDyNrHmmS5WxKRR2yVeaaoQu32UqoY1P&#xA;4ZKUqcDQdm5NSTw7V1P3PZ/yu8o3PlzQZVvoxHqN3Mz3CghqKhKRryWoIpVv9llM5WXsexdDLT4j&#xA;xD1yO/6P1/FD+c/yvTzRq41GbU3twkSwxwrEHCqpJ6lx1ZiemMZ019odjfmcnGZ1tVV+1i+ofkLc&#xA;JAz6fqyyzAfDFPEY1J/11Z6f8DkxldZl9mCB6J2fMPLtQsLzT72ayvImhuoGKSxN1BH+exywF5nL&#xA;iljkYyFSChha3Yqm+l+UPM2q2v1vT9OmubYsVEqD4SV60qRkTIBy8OgzZY8UIkhONF8j+erHV7K9&#xA;TR5w9rPHMK8QP3bhu5p2wGQczT9m6qGSMhA+kgvQPzLsPNPmmxttP0vRblI7eb1pZLiS2iDEKVXi&#xA;PVNftHrlcCA77tjFn1MRCGOVA3uYj/fJN5Q8ufm15ainjsLK3EV1QvFcSxuEYbcxwkG9PnkpGJcP&#xA;QaTX6cEQjGpd5H60uvvyl8/anqFxfXf1Vbi5dpZW9WgLMamgVTTCJgOPk7C1eSZlLhs7806sfIX5&#xA;tW2kvpkOt20Ni6mP0GlkYqnTij+izIPZWGRMouZj7M18cfAMkRHus/8AE7fBKx+RHmOgrqFmD3AM&#xA;p/40w+KHG/0M5v50ft/UlHmP8pvNOi2bXtIr62jBaZrYsWRR1ZkZVNPlXJCYLiavsPPhjxbSj5ML&#xA;ybpnYq7FXYq7FXYq7FXYq7FXYq7FXYq7FU38nw+t5r0aKlQ17b8u2wlUn8MEuTl6CN54D+nH73tv&#xA;5vaTFf8Ak+SVh+9tJ4ZI3pUj1JBE30UkqfllGM7vadvYBPTk9YkffX6WQeZtF/Svl280qOi+vFwj&#xA;HQDiQR/xHIg0XP1mn8XDLGOoSv8AM61SbyFqsYAAjjR09vTkVtvoFMMObi9swB0sx5D7CFD8qdKi&#xA;03yRZyGiyXnK7mY7fbNF+6NVwzNlh2JgGPTRP871H8e5gd9+e+vOSLGwtoErsZecrU+hkGTGIOjy&#xA;+0uU/TGI99n9STSfnB58Zwy3scYH7CwRU/4ZSfxyXhhwz29qifqHyDPvyu/MTWfMeo3OnamsJaGA&#xA;zxzRqUc0dVIYVK/t9gMrnAB3vYvauTUTMJ1sLY/+e2jrFqen6tGtBdRtBMR/PEQVJ9yr0+jJYi4H&#xA;tLp6nHIP4hXy/H2PLcteYdir6b8rW0ejeSbBQn+89ks0iDarlPVf72JzGluX0rRQGHTR8o3+kvO/&#xA;+V+Xf/Vmj/5Ht/zRlnhPP/6J5fzB8/2O/wCV+Xf/AFZo/wDke3/NGPhL/onl/MHz/YjtF/ODzBrV&#xA;8tjpnl5bi5ILcBcUAUUBZmZAAN++A4wOrdp+3suaXDDFZ/rfsQtz+emo21zLbT6IiTQO0cqGc1DI&#xA;eLD7HYjD4bXP2lnEmJx7jz/Yp/8AK/Lv/qzR/wDI9v8AmjHwmP8Aonl/MHz/AGO/5X5d/wDVmj/5&#xA;Ht/zRj4S/wCieX8wfP8AY9C8k+cLTzVo5vI4/QnjYxXVsW5cG6ihoKqw6be3bK5Rp3/Z2vjqsfEB&#xA;RGxDwTz5pVvpXm/VLG3UJBHLziQdFWVRIFH+rzpl8TYeF7TwDFqJxHK/v3SHJOA7FXYq7FXYq7FX&#xA;Yq7FXYq7FXYq7FWS/lrB63nnSEpWkxfpX+7Rn/41yM+TsuyI3qoe963+cupxWnkua1LATX8sUUS9&#xA;6I4lYj5cKfTlOMbvV+0GYR0xj1kQP0/oZraTrcWsM6/ZmRZB8mAOQdzCXFEHvSD8x2VfI+sFjQeh&#xA;T6SwA/HJQ5uB2sa0s/c3HcLY/l0k6/CLbSFdf9hbVH6seqRLg0d92P8A3rw/8tdJTVPOmnQSxiSC&#xA;J2nmVhVeMSlhyHgWAGXzNB4rsjAMupiCLA3+TJ/zy0XTrG/0y8tIEgkvFmWcRqFDGIoQxA2r+865&#xA;DGXZe0mnhCcJRFcV38K/Wlv5K3HpedQlaevbTR9etOL/APGmHJycf2elWprvif1sw/PiSMaFpsZP&#xA;7xroso70WMg/8SGRxc3be0xHhRH9L9DxPLnjHYq+g/8AG2gt+XT6hHdRl0shbtBy+MXLRcREV2Ne&#xA;X4b9Mx+E299/KOL8nxgj6ar+lXJ4Ro2l3Orara6bbf311Isak9BU7sfZRucvJp4fT4ZZZiEeciy3&#xA;zT+Umu6N9U+pM2rfWnaMrBEwZGABHIVbYiu/amQjkBdtrewsuHh4fXxdwZr+U3kLXdAvLrUdVRID&#xA;PCIYoA4dxVgxLcaqPsj9rITkC7nsPszLgkZ5NrFUj9d/J3QNX1e61OS6uYJLp/Ukii9PgGIHIiqk&#xA;7nfEZCG7U9gYsuQzJkOL3JZN+Q2iFf3Op3KNvu6xuPbYBMPilx5ezOLpOX2MN83/AJTa15ftHv4Z&#xA;k1Cwi3lkRSkiD+ZoyW+H5McnGYLp9f2HkwR4weKI+Y+DHfLnmrW/LtzJcaVP6TSqFmRlDo4G4qre&#xA;HY5IxBdfpNbl08icZq0HqmqXuqahPqF9J6t1cNylegWppQbCgFAMQKac2aWWZnI3IoXC1OxV2Kux&#xA;V2KuxV2KuxV2KuxV2KuxVMPL+uXmhaxbarZqjXFsWKLICUIdCjAgEH7LHvgIsORpdTLBkGSPMf2I&#xA;zzd5x1bzRfJdX/FFhXhBbxVEaA7sRUk1Y9TgjGm7Xa/JqZcU+nIKNv5t80W7QGPVrvjbFTBG08jI&#xA;vClBwJK8dulKYeEMIa7PGqnLbluWaeb/AM3Idd8sSaRHYvDcXSxfWZi44KyOrsEAqSCVpvTIRx0X&#xA;ca/t0Z8BxiNGVWftTXUvzC0CX8sE01bsHV5bGO1NsFevJaRvUheAqqk9ciIHicrN2riOi4OL94YA&#xA;V9iY/kz5Ql03T5dbvY+F1fqFtlbqtvXlX/noaH5AYMkr2cj2f0BxwOWQ9UuXu/anf5j+Rv8AFWmw&#xA;+hL6WoWPNrXl/dv6gXkjeFeAoe2CEqc3tbs381AUanG6eGaXqGs+UvMSXPoejqNkzK9vOpp8SlWD&#xA;AEbENsQffLiAQ8Thy5NLm4qqcehTPz757fzY2nu1ubX6pG4ePlzUyORVlNBsQo64Ixpye0+0zquH&#xA;bh4QxTJuqdirsVegfkjYpcecHuGH+8drJIh/y3Kx/wDEXbK8h2d/7OY+LUX/ADYn9T1jzl530zyr&#xA;bQS3kUs73RZYI4gu5QAnkWIoPiHjlUY29T2h2jDSgGQJ4uVMX8o/m3c+YfNUGlmxjtLS4WTgS7SS&#xA;c0QuPi+BaUU/s5KWOg6zQ9uy1GcY+ERib8yhPzsn8z2psp7K4nh0h0Mdx6DMiiXkaeoVpsynavhh&#xA;x01e0Us8eExJGPrXf5vMtI80+aLC9jlsL+49csAsXNpFc12UxmoavhTLDEPN4NbnhIGEpX87+D6A&#xA;1XUZ18h3d7rMC21w1hIbu2rUCR4yvCtf2mNOuUAb7PeZ8p/KylkFHgNj4cnzPmS+buxV2KuxV2Ku&#xA;xV2KuxV2KuxV2KuxV2KuxV2KuxV2KuxVH6BNZQa7p099x+pRXUMl0GXmvpLIC9VAPL4QdqYDyb9L&#xA;KMcsTL6RIX7r3e1+ZPzj8tWFiTpEg1K+cERIFdIkP80jMF29l6+3XKRjL2er7fwwj+7PHL7Pil3k&#xA;H83o7+X9H+Y5I4LlyTb3tAkTVNeD9kI7Hoe+/Uyx9zj9l9vCZ4MxAPQ9Pce5j/52avo19qmnx2Ek&#xA;FxPFE5ubmBlc0ZqJGzKT9nixofH3yWMFwPaLPjnOIhRIG5H2B5tljzjsVdirsVejfkZcxR+arqFz&#xA;R57RhH7lZEYj7qnK8nJ6H2bmBnI74/pCYfn5ccr7R7f/AH3FNJ/yMZB/xpgxOR7Ty9UB5H9H6mCe&#xA;SL36l5v0i4rQC6iRz4LI3BvwbJy5Oj7OycGogf6Q+3Z9NXJtvQcXXD6uw4yerTgQ21Dy23rTMZ9J&#xA;nw16uTHIfLn5f6LftrSQ2llMop6zSBY0r3VGbgh/1RkrJ2ddHSaTDLxAIxPv2/UHm35p/mRba3GN&#xA;G0di2nKwa6uSComZTVVUHfgp336n5b2whW7zvbXa4zDw8f0dT3/sebZY847FXYq7FXYq7FXYq7FX&#xA;Yq7FXYq7FXYq7FXYq7FXYq7FXYq7FXYq7FXYq7FXYq7FVaxvrywu47uzmaC5hPKKVDRlPTr8sBDP&#xA;HklCQlE1IKmo6rqepTCfULqW7mA4q8ztIQta0HImg36YgUyy5p5DcyZHzUIJngnjmT7cTB1+amow&#xA;sIy4SCOj6U8+rFd+RdWYGsbWjSofHiBIv6sxo830btMCWln/AFb/AEvmjMl83dirsVdirsVdirsV&#xA;dirsVdirsVdirsVdirsVdirsVdirsVdirsVdirsVdirsVdirsVdirsVdirsVTqbzp5pn0ZdFl1CR&#xA;tNVRGIKKDwXopcDmVFOhOR4RdubLtHPLH4ZkeDu/G6S5JwnYq7FXYq7FXYq7FXYq7FXYq7FXYq7F&#xA;XYq7FXYq7FXYq7FXYq7FXYq7FXYq7FXYq7FXYq7FXYq7FXYq7FXYq7FXYq7FXYq7FXYq7FXYq7FX&#xA;Yq7FXYq7FXYq7FXYq7FXYq7FXYq7FXYq7FXYq7FXYq7FXYq7FXYq7FXYq7FXYq7FXYq7FXYq7FXY&#xA;q7FXYq7FXYq7FXYq7FXYq7FXYq7FXYq7FXYq7FXYq7FXYq7FXYq7FXYq7FXYq7FXYq7FXYq7FXYq&#xA;7FXYq7FXYq7FXYq7FXYq7FXYq7FXYq7FXYq7FXYq7FXYq7FXYq7FXYq7FXYq7FXYq7FXYq7FXYq7&#xA;FXYq7FXYq//Z</xmpGImg:image>
               </rdf:li>
            </rdf:Alt>
         </xmp:Thumbnails>
         <xmp:MetadataDate>2018-11-19T20:22:20+08:00</xmp:MetadataDate>
         <xmp:ModifyDate>2018-11-19T20:22:20+08:00</xmp:ModifyDate>
         <xmpTPg:MaxPageSize rdf:parseType="Resource">
            <stDim:w>1024.000000</stDim:w>
            <stDim:h>1024.000000</stDim:h>
            <stDim:unit>Pixels</stDim:unit>
         </xmpTPg:MaxPageSize>
         <xmpTPg:NPages>1</xmpTPg:NPages>
         <xmpTPg:HasVisibleTransparency>False</xmpTPg:HasVisibleTransparency>
         <xmpTPg:HasVisibleOverprint>False</xmpTPg:HasVisibleOverprint>
         <xmpTPg:PlateNames>
            <rdf:Seq>
               <rdf:li>Cyan</rdf:li>
               <rdf:li>Magenta</rdf:li>
               <rdf:li>Yellow</rdf:li>
            </rdf:Seq>
         </xmpTPg:PlateNames>
         <xmpTPg:SwatchGroups>
            <rdf:Seq>
               <rdf:li rdf:parseType="Resource">
                  <xmpG:groupName>默认色板组</xmpG:groupName>
                  <xmpG:groupType>0</xmpG:groupType>
               </rdf:li>
            </rdf:Seq>
         </xmpTPg:SwatchGroups>
      </rdf:Description>
   </rdf:RDF>
</x:xmpmeta>
                                                                                                    
                                                                                                    
                                                                                                    
                                                                                                    
                                                                                                    
                                                                                                    
                                                                                                    
                                                                                                    
                                                                                                    
                                                                                                    
                                                                                                    
                                                                                                    
                                                                                                    
                                                                                                    
                                                                                                    
                                                                                                    
                                                                                                    
                                                                                                    
                                                                                                    
                                                                                                    
                           
<?xpacket end="w"?>
	</metadata>
<g>
	<g>
		<path fill="#01A480" d="M3.1225944,1027.12146C3.12238,685.7890015,3.12238,344.4560547,3.1221657,3.1228228
			C344.4548035,3.1225326,685.7876587,3.1225326,1027.1208496,3.122242
			c0.0003662,341.332428,0.0003662,682.6651611,0.0007324,1023.9983521
			C685.7889404,1027.1209717,344.4558716,1027.1209717,3.1225944,1027.12146z M379.8059082,573.6810913
			c3.0759888,0.3327026,5.0675964,0.7399292,7.0583191,0.7357178c81.121582-0.170105,162.2449646-0.1239624,243.3636169-0.7167358
			c28.5065308-0.208252,55.736084-21.5643311,59.2336426-50.4718018
			c4.0696411-33.6363831,3.3140259-67.8565979,4.6524658-101.8234558c-1.3407593-0.3577881-2.6814575-0.7156067-4.0221558-1.0734558
			c-12.1123047,15.3057251-24.3716431,30.4978943-36.2966919,45.9480896
			c-12.6756592,16.42276-29.2987671,25.2608643-49.87854,23.8451233c-13.838562-0.9519958-27.6438599-4.0624084-41.178833-7.373291
			c-22.1863403-5.427063-43.8101807-14.4972839-66.2575989-17.2510986
			C438.8535767,458.430603,382.3645935,511.2478943,379.8059082,573.6810913z M507.6020813,180.7828674
			c-46.8406372,0-93.6010437-0.2158966-140.358429,0.0666962c-39.0579529,0.2360229-67.5116272,29.1416931-67.6175842,68.338623
			c-0.1672974,61.8896027-0.1469727,123.7797394-0.2049255,185.6696014
			c-0.0046997,5.003479-0.0006104,10.0069275-0.0006104,15.7626343
			c24.2140808-0.9361572,41.8865051-10.7912598,55.9250488-27.2885437
			c8.1560669-9.5845337,9.0241394-20.6222229,3.2197876-32.0545044
			c-5.6482239-11.1247559-11.2586975-22.2738342-16.6072083-33.5444336
			c-8.3313599-17.5563354-4.7822571-37.1071167,10.3798218-49.3562927
			c7.5036316-6.0619812,16.6246643-10.7340393,25.7340088-14.0667419
			c18.0469971-6.6026001,36.6420288-11.6914673,54.9232483-17.6729126
			c31.6915894-10.3691406,54.3615112-31.8949432,71.3112488-59.6909943
			C510.5348816,206.7320404,514.8092041,195.2256012,507.6020813,180.7828674z M565.3711548,181.4722748
			c-20.0449829,43.6766663-26.385437,88.3729706-11.4269409,134.7930145
			c4.182312,12.9787292,10.3206177,25.9880981,24.9589844,29.9136963
			c36.8653564,9.8861694,71.1152954,4.4277954,101.0824585-20.4058533
			c9.7460327-8.0764771,14.0025024-18.6014099,13.5570679-31.6652527
			c-0.6906128-20.2522583-0.1849976-40.5450439-0.1982422-60.8206482
			c-0.0198975-30.3855286-15.4334717-49.1725769-46.1177368-51.4072266
			C620.3898315,179.9255676,593.2978516,181.4722748,565.3711548,181.4722748z M463.1319885,789.1557007
			c2.7866516-14.229126,7.0158386-26.1737671,6.919281-38.083313c-0.0939636-11.5863647-3.8701477-23.369812-7.3756714-34.6482544
			c-5.1737976-16.6456299-17.3978271-25.1270142-34.903595-25.5317993
			c-10.256012-0.2371826-20.5219421-0.0432739-32.9309998-0.0432739
			c4.1131287-13.8164063,7.8391113-26.3325195,11.0094604-36.9822388c17.2921143-6.730957,34.7756653,6.65802,50.1702576-6.809021
			c-0.9640198-5.8901367-1.8414001-11.2508545-3.1146545-19.0302734
			c-35.7012634-0.949707-70.3511658-2.4014282-105.0048828-2.4998169
			c-11.7924194-0.0335083-15.8886414,7.9130859-11.4567871,21.6756592
			c14.250885,0.8027344,28.8454895,1.6248169,45.2655029,2.5497437
			c-6.8682251,17.8949585-13.1729736,34.3217773-19.8478088,51.7128906
			c-6.393158-3.6132202-10.6512756-6.0198364-14.6611328-8.2861328
			c-18.6916504,17.3884277-27.4913025,73.9586792-15.6529236,103.5949097
			c5.1300659-1.0236206,10.6271362-2.1206055,15.4640503-3.0857544c3.0757446-25.4395752,5.9002075-48.8010864,8.6758728-71.758606
			c28.6822205-3.0068359,53.8867493-13.3286743,82.4040222-0.9929199
			c1.7166748,18.7437744,3.5611267,38.8831177,5.441803,59.4172363
			C449.2911987,782.9402466,454.2489929,785.166626,463.1319885,789.1557007z M679.3959351,650.4356689
			c12.1638184,0,22.178894,0,32.269104,0c0.4557495,8.9467773,0.8511353,16.7077026,1.3985596,27.4547119
			c5.2788086,1.4558716,12.2215576,5.9134521,16.7410889,4.1523438
			c15.0918579-5.8809204,4.8632813-21.3505859,10.2355347-32.3675537
			c12.7163696-1.5585327,25.9587402-3.1815796,41.685791-5.1091309c0-7.3858643,0-14.1337891,0-22.9122314
			c-16.3561401,0-30.5927734,0-44.2458496,0c-2.5924683-7.8161011-4.5253296-13.6437378-6.8809204-20.7457275
			c-4.4121094-0.2990723-8.7193604-0.5910645-13.7658691-0.9331665c-2.4308472,7.8290405-4.5155029,14.5431519-6.5491943,21.0932007
			c-11.0946045,0-21.7633057,0-31.7597046,0c-4.4700317-8.5914917-1.8445435-22.3099365-18.6303101-19.1920166
			c-1.7440796,6.3465576-3.473999,12.6415405-5.4832764,19.9528809c-9.5067139,0-19.119873,0-28.7175903,0
			c-2.3208008-6.8831787-4.4260254-13.1272583-6.9365845-20.5734863c-4.967041,0.2636719-9.2332764,0.4900513-14.6629639,0.7782593
			c-0.8983154,8.3934937-1.6514893,15.4302979-2.5085449,23.4384766
			c-11.9199219,2.4679565-23.8140259,4.930603-36.4772949,7.5524902c0.4216309,7.2871704,0.7370605,12.7396851,1.1664429,20.1600952
			c12.927124,0,24.4770508,0,35.4596558,0c3.3162231,15.2140503,6.1858521,28.3792114,9.4277344,43.2520142
			c7.9805298-1.9881592,16.4940796-2.4451904,16.8877563-4.4761353c2.6392212-13.6152954,3.5506592-27.5655518,5.0900269-42.041748
			c5.6868896,0,13.1463013,0,22.3971558,0c-0.4728394,7.2092896-2.0817261,13.4294434-0.9237671,19.0829468
			c1.2301025,6.0064087,3.763855,13.2520142,8.2391968,16.5776367c3.1802979,2.3631592,10.5231934-0.8754272,16.5438232-1.6860352
			C679.3959351,671.0944824,679.3959351,661.3117065,679.3959351,650.4356689z M664.6830444,781.7427979
			c2.5546265,14.8490601,4.8396606,27.0061646,6.6956787,39.2286377
			c1.9448242,12.8078003,3.6717529,25.6564941,5.1236572,38.5290527
			c0.9891968,8.7697144,4.4163208,15.8905029,14.0872192,14.9815063
			c10.7059326-1.0064087,12.373291-9.3037109,11.1732178-18.5457153
			c-1.0354004-7.9741211-1.8823242-15.9724731-2.8746948-24.4932251c32.0454712,9.2388306,54.1178589-7.125,63.2124634-26.6891479
			c9.8236694-21.1322632,10.317749-40.5096436-17.4103394-48.4401855
			c-9.2769775-2.6534424-19.3104248-3.0831299-29.0473633-3.5964355
			c-11.1422729-0.5874023-22.3392334-0.1360474-32.8138428-0.1360474
			c-2.6920776-8.4564819-4.7820435-15.0214844-6.9666748-21.8839111
			c-19.7022705,2.9593506-10.0491943,18.7744751-15.6618652,28.5903931
			c-9.0232544,3.2267456-19.078186,6.8225098-29.4831543,10.543396c-2.005249-5.0927124-3.4568481-8.7792358-5.0167236-12.7406616
			c-5.553772,0-10.5435791,0-14.9832764,0c-15.2962036,25.0388794-16.9812622,75.524353-2.0941162,83.4643555
			c3.3635254-0.6541138,7.7524414-1.5075684,14.9721069-2.911438c1.4307861-14.6629028,2.8570557-29.2792358,4.4327393-45.4262695
			C639.2802734,789.001709,651.0753174,785.6312866,664.6830444,781.7427979z M775.6188354,721.8173828
			c11.8741455,7.5073242,9.717041,32.6218872,32.5275879,24.9315186
			c8.6121216-26.5356445-10.4299927-53.4298706-37.2739868-52.6053467
			c-57.0706787,1.7530518-114.0982056,4.8793335-171.1528931,7.2098389
			c-12.7009888,0.5188599-25.4412231,0.0761719-39.6084595,0.0761719
			c-8.7314453,9.3221436-14.7190552,49.5683594-6.977417,61.1732788c2.5613403,3.8395386,8.3221436,5.5446777,11.8544922,7.7480469
			c18.84375-13.3981323,6.9433594-32.0116577,13.4123535-48.5335083
			C643.8474731,721.8173828,709.6389771,721.8173828,775.6188354,721.8173828z M266.6822815,690.2815552
			c-11.9360199,28.2793579-7.4772644,55.0170288-4.0080872,84.4483032c8.9098206-0.4312134,16.366272-0.7920532,23.743988-1.1491089
			c3.1583557,4.7040405,6.8154297,10.1509399,11.0195618,16.4125977c5.752594-1.1854858,10.9608459-2.2587891,15.9338074-3.2835693
			c4.8761292-30.6899414,5.0882263-59.5241089-2.0480347-88.0280762c-1.3526001-5.4026489-5.9400024-9.9954224-9.0348816-14.961853
			c-1.8108826,0.5279541-3.6217346,1.0559082-5.4326172,1.5838623c-2.7788086,16.1013184-5.5576172,32.2026978-8.3364258,48.3040161
			C280.1705933,719.8754272,291.2973938,699.1768799,266.6822815,690.2815552z M386.7472534,740.5151978
			c-1.2073669,1.4231567-2.0307312,2.1238403-2.5063782,3.0110474c-0.9701233,1.8093262-2.2619019,3.6477051-2.5354309,5.5982666
			c-3.2485046,23.1661987-11.5880432,43.4172363-29.9163818,59.2786865
			c-2.9865112,2.5847168-3.3690796,13.0629883-0.6864624,16.0198975c3.0361328,3.3465576,12.0058594,4.7389526,16.4015503,2.694397
			c8.6043091-4.0021973,15.8242493-10.9807739,24.36203-17.2764893
			c7.6434631,6.8348999,15.4191589,13.7880859,24.3164063,21.7442017c3.1590576-0.1633301,7.6886597-0.397522,13.7678223-0.711853
			c2.071167-6.8974609,4.0563049-13.5082397,5.9647522-19.8637085
			c-12.4433289-11.4661255-23.5339355-21.6856689-33.0169067-30.4238281
			C402.4395447,745.4814453,402.4395447,745.4814453,386.7472534,740.5151978z M225.7570038,696.6468506
			c-2.3860779,30.6540527-4.4345551,56.97052-6.4888306,83.3616943c10.7375946,5.6712036,13.2940216,5.4232178,19.2055511-2.0652466
			c16.1291962-20.4321289,16.9109192-54.0762329,2.0899658-75.7915649
			C235.5175323,694.7581177,230.299881,692.3937378,225.7570038,696.6468506z"/>
		<path fill="#F9FCFB" d="M379.8059082,573.6810913c2.5586853-62.433197,59.0476685-115.2504883,116.6742249-108.1809082
			c22.4474182,2.7538147,44.0712585,11.8240356,66.2575989,17.2510986c13.5349731,3.3108826,27.340271,6.4212952,41.178833,7.373291
			c20.5797729,1.415741,37.2028809-7.4223633,49.87854-23.8451233
			c11.9250488-15.4501953,24.1843872-30.6423645,36.2966919-45.9480896
			c1.3406982,0.3578491,2.6813965,0.7156677,4.0221558,1.0734558c-1.3384399,33.9668579-0.5828247,68.1870728-4.6524658,101.8234558
			c-3.4975586,28.9074707-30.7271118,50.2635498-59.2336426,50.4718018
			c-81.1186523,0.5927734-162.2420349,0.5466309-243.3636169,0.7167358
			C384.8735046,574.4210205,382.881897,574.0137939,379.8059082,573.6810913z"/>
		<path fill="#F9FCFB" d="M507.6020813,180.7828674c7.2071228,14.4427338,2.9328003,25.949173-3.2955933,36.1631317
			c-16.9497375,27.796051-39.6196594,49.3218536-71.3112488,59.6909943
			c-18.2812195,5.9814453-36.8762512,11.0703125-54.9232483,17.6729126
			c-9.1093445,3.3327026-18.2303772,8.0047607-25.7340088,14.0667419
			c-15.1620789,12.249176-18.7111816,31.7999573-10.3798218,49.3562927
			c5.3485107,11.2705994,10.9589844,22.4196777,16.6072083,33.5444336
			c5.8043518,11.4322815,4.9362793,22.4699707-3.2197876,32.0545044
			c-14.0385437,16.4972839-31.710968,26.3523865-55.9250488,27.2885437c0-5.7557068-0.0040894-10.7591553,0.0006104-15.7626343
			c0.0579529-61.8898621,0.0376282-123.7799988,0.2049255-185.6696014
			c0.105957-39.1969299,28.5596313-68.1026001,67.6175842-68.338623
			C414.0010376,180.5669708,460.7614441,180.7828674,507.6020813,180.7828674z"/>
		<path fill="#F9FCFB" d="M565.3711548,181.4722748c27.9266968,0,55.0186768-1.5467072,81.8555908,0.4077301
			c30.6842651,2.2346497,46.0978394,21.021698,46.1177368,51.4072266
			c0.0132446,20.2756042-0.4923706,40.5683899,0.1982422,60.8206482
			c0.4454346,13.0638428-3.8110352,23.5887756-13.5570679,31.6652527
			c-29.9671631,24.8336487-64.2171021,30.2920227-101.0824585,20.4058533
			c-14.6383667-3.9255981-20.7766724-16.934967-24.9589844-29.9136963
			C538.9857178,269.8452454,545.3261719,225.148941,565.3711548,181.4722748z"/>
		<path fill="#F9FCFB" d="M463.1319885,789.1557007c-8.8829956-3.9890747-13.8407898-6.2154541-19.5982056-8.8009644
			c-1.8806763-20.5341187-3.7251282-40.6734619-5.441803-59.4172363
			c-28.5172729-12.3357544-53.7218018-2.013916-82.4040222,0.9929199
			c-2.7756653,22.9575195-5.6001282,46.3190308-8.6758728,71.758606
			c-4.8369141,0.9651489-10.3339844,2.0621338-15.4640503,3.0857544
			c-11.8383789-29.6362305-3.0387268-86.2064819,15.6529236-103.5949097
			c4.0098572,2.2662964,8.2679749,4.6729126,14.6611328,8.2861328
			c6.6748352-17.3911133,12.9795837-33.8179321,19.8478088-51.7128906
			c-16.4200134-0.9249268-31.0146179-1.7470093-45.2655029-2.5497437
			c-4.4318542-13.7625732-0.3356323-21.7091675,11.4567871-21.6756592
			c34.653717,0.0983887,69.3036194,1.5501099,105.0048828,2.4998169c1.2732544,7.7794189,2.1506348,13.1401367,3.1146545,19.0302734
			c-15.3945923,13.467041-32.8781433,0.078064-50.1702576,6.809021
			c-3.1703491,10.6497192-6.8963318,23.1658325-11.0094604,36.9822388c12.4090576,0,22.6749878-0.1939087,32.9309998,0.0432739
			c17.5057678,0.4047852,29.7297974,8.8861694,34.903595,25.5317993
			c3.5055237,11.2784424,7.2817078,23.0618896,7.3756714,34.6482544
			C470.1478271,762.9819336,465.9186401,774.9265747,463.1319885,789.1557007z"/>
		<path fill="#F9FCFB" d="M679.3959351,650.4356689c0,10.8760376,0,20.6588135,0,33.4578247
			c-6.0206299,0.8106079-13.3635254,4.0491943-16.5438232,1.6860352c-4.4753418-3.3256226-7.0090942-10.571228-8.2391968-16.5776367
			c-1.157959-5.6535034,0.4509277-11.8736572,0.9237671-19.0829468c-9.2508545,0-16.7102661,0-22.3971558,0
			c-1.5393677,14.4761963-2.4508057,28.4264526-5.0900269,42.041748c-0.3936768,2.0309448-8.9072266,2.4879761-16.8877563,4.4761353
			c-3.2418823-14.8728027-6.1115112-28.0379639-9.4277344-43.2520142c-10.982605,0-22.5325317,0-35.4596558,0
			c-0.4293823-7.4204102-0.744812-12.8729248-1.1664429-20.1600952c12.663269-2.6218872,24.557373-5.0845337,36.4772949-7.5524902
			c0.8570557-8.0081787,1.6102295-15.0449829,2.5085449-23.4384766c5.4296875-0.288208,9.6959229-0.5145874,14.6629639-0.7782593
			c2.5105591,7.446228,4.6157837,13.6903076,6.9365845,20.5734863c9.5977173,0,19.2108765,0,28.7175903,0
			c2.0092773-7.3113403,3.7391968-13.6063232,5.4832764-19.9528809
			c16.7857666-3.1179199,14.1602783,10.6005249,18.6303101,19.1920166c9.9963989,0,20.6651001,0,31.7597046,0
			c2.0336914-6.5500488,4.1183472-13.2641602,6.5491943-21.0932007c5.0465088,0.3421021,9.3537598,0.6340942,13.7658691,0.9331665
			c2.3555908,7.1019897,4.2884521,12.9296265,6.8809204,20.7457275c13.6530762,0,27.8897095,0,44.2458496,0
			c0,8.7784424,0,15.5263672,0,22.9122314c-15.7270508,1.9275513-28.9694214,3.5505981-41.685791,5.1091309
			c-5.3722534,11.0169678,4.8563232,26.4866333-10.2355347,32.3675537
			c-4.5195313,1.7611084-11.4622803-2.6964722-16.7410889-4.1523438
			c-0.5474243-10.7470093-0.9428101-18.5079346-1.3985596-27.4547119
			C701.5748291,650.4356689,691.5597534,650.4356689,679.3959351,650.4356689z"/>
		<path fill="#F9FCFB" d="M664.6830444,781.7427979c-13.6077271,3.8884888-25.402771,7.2589111-36.6549683,10.4743042
			c-1.5756836,16.1470337-3.0019531,30.7633667-4.4327393,45.4262695
			c-7.2196655,1.4038696-11.6085815,2.2573242-14.9721069,2.911438
			c-14.887146-7.9400024-13.2020874-58.4254761,2.0941162-83.4643555c4.4396973,0,9.4295044,0,14.9832764,0
			c1.5598755,3.9614258,3.0114746,7.6479492,5.0167236,12.7406616c10.4049683-3.7208862,20.4598999-7.3166504,29.4831543-10.543396
			c5.6126709-9.815918-4.0404053-25.6310425,15.6618652-28.5903931c2.1846313,6.8624268,4.2745972,13.4274292,6.9666748,21.8839111
			c10.4746094,0,21.6715698-0.451355,32.8138428,0.1360474c9.7369385,0.5133057,19.7703857,0.9429932,29.0473633,3.5964355
			c27.7280884,7.930542,27.2340088,27.3079224,17.4103394,48.4401855
			c-9.0946045,19.5641479-31.1669922,35.9279785-63.2124634,26.6891479
			c0.9923706,8.520752,1.8392944,16.519104,2.8746948,24.4932251c1.2000732,9.2420044-0.4672852,17.5393066-11.1732178,18.5457153
			c-9.6708984,0.9089966-13.0980225-6.211792-14.0872192-14.9815063
			c-1.4519043-12.8725586-3.178833-25.7212524-5.1236572-38.5290527
			C669.5227051,808.7489624,667.2376709,796.5918579,664.6830444,781.7427979z M745.4432373,791.7141113
			c-9.4140625-19.5774536-35.7218018-23.6775513-57.1000366-12.2619629
			c-1.5368042,15.7470703,7.3144531,24.1292114,35.5472412,32.4799194
			C730.6574707,805.5841064,738.0828247,798.6186523,745.4432373,791.7141113z"/>
		<path fill="#F9FCFB" d="M775.6188354,721.8173828c-65.9798584,0-131.7713623,0-197.2183228,0
			c-6.4689941,16.5218506,5.4313965,35.135376-13.4123535,48.5335083
			c-3.5323486-2.2033691-9.2931519-3.9085083-11.8544922-7.7480469c-7.7416382-11.6049194-1.7540283-51.8511353,6.977417-61.1732788
			c14.1672363,0,26.9074707,0.442688,39.6084595-0.0761719c57.0546875-2.3305054,114.0822144-5.4567871,171.1528931-7.2098389
			c26.8439941-0.8245239,45.8861084,26.0697021,37.2739868,52.6053467
			C785.3358765,754.43927,787.492981,729.324707,775.6188354,721.8173828z"/>
		<path fill="#F9FCFB" d="M266.6822815,690.2815552c24.6151123,8.8953247,13.4883118,29.5938721,21.8373108,43.3261719
			c2.7788086-16.1013184,5.5576172-32.2026978,8.3364258-48.3040161c1.8108826-0.5279541,3.6217346-1.0559082,5.4326172-1.5838623
			c3.0948792,4.9664307,7.6822815,9.5592041,9.0348816,14.961853c7.136261,28.5039673,6.9241638,57.3381348,2.0480347,88.0280762
			c-4.9729614,1.0247803-10.1812134,2.0980835-15.9338074,3.2835693
			c-4.2041321-6.2616577-7.8612061-11.7085571-11.0195618-16.4125977
			c-7.3777161,0.3570557-14.8341675,0.7178955-23.743988,1.1491089
			C259.2050171,745.298584,254.7462616,718.5609131,266.6822815,690.2815552z"/>
		<path fill="#F9FCFB" d="M386.7472534,740.5151978c15.6922913,4.9662476,15.6922913,4.9662476,16.151001,40.0706177
			c9.4829712,8.7381592,20.5735779,18.9577026,33.0169067,30.4238281
			c-1.9084473,6.3554688-3.8935852,12.9662476-5.9647522,19.8637085c-6.0791626,0.3143311-10.6087646,0.5485229-13.7678223,0.711853
			c-8.8972473-7.9561157-16.6729431-14.9093018-24.3164063-21.7442017
			c-8.5377808,6.2957153-15.7577209,13.274292-24.36203,17.2764893c-4.3956909,2.0445557-13.3654175,0.6521606-16.4015503-2.694397
			c-2.6826172-2.9569092-2.3000488-13.4351807,0.6864624-16.0198975
			c18.3283386-15.8614502,26.6678772-36.1124878,29.9163818-59.2786865
			c0.2735291-1.9505615,1.5653076-3.7889404,2.5354309-5.5982666
			C384.7165222,742.6390381,385.5398865,741.9383545,386.7472534,740.5151978z"/>
		<path fill="#F9FCFB" d="M225.7570038,696.6468506c4.5428772-4.2531128,9.7605286-1.8887329,14.8066864,5.5048828
			c14.8209534,21.715332,14.0392303,55.359436-2.0899658,75.7915649c-5.9115295,7.4884644-8.4679565,7.7364502-19.2055511,2.0652466
			C221.3224487,753.6173706,223.3709259,727.3009033,225.7570038,696.6468506z"/>
		<path fill="#01A480" d="M745.4432373,791.7141113c-7.3604126,6.904541-14.7857666,13.8699951-21.5527954,20.2179565
			c-28.2327881-8.350708-37.0840454-16.7328491-35.5472412-32.4799194
			C709.7214355,768.0365601,736.0291748,772.1366577,745.4432373,791.7141113z"/>
	</g>
</g>
</svg>
